<svg xmlns="http://www.w3.org/2000/svg" width="220" height="49" fill="none" viewBox="0 0 220 49">
  <path fill="url(#paint0_linear_60_157)" d="M30.76 30.208c.896 2.56 3.52 10.752 4.032 13.056.448 1.792-.128 2.432-1.92 2.432h-1.6c-.384 0-.576.064-.576.448v1.472c0 .384.192.576.512.576 1.472 0 3.712-.192 9.024-.192 5.184 0 6.528.192 7.68.192.448 0 .64-.128.64-.448v-1.6c0-.256-.128-.448-.512-.448h-2.112c-1.6 0-3.264-.768-4.352-2.88-.896-1.856-5.056-13.76-6.528-18.752C33.832 19.968 28.84 5.632 27.624 1.6c-.192-.704-.32-1.088-.704-1.088-.32 0-.512.256-.832.576-.704.896-3.52 2.816-5.312 3.2-.448.128-.576.384-.576.576 0 .256.256.576.448.832.448.704.128 1.536-.064 2.176-.576 1.728-5.76 15.488-6.208 16.768C12.52 29.888 7.848 41.728 7.4 42.752c-.896 2.048-1.792 2.944-3.712 2.944h-2.24c-.256 0-.512.128-.512.448v1.536c0 .384.128.512.448.512.896 0 2.304-.192 6.976-.192 3.776 0 6.4.192 7.296.192.32 0 .512-.128.512-.576v-1.472c0-.32-.192-.448-.64-.448H12.52c-1.408 0-2.176-.512-2.176-1.408 0-.32.128-.96.192-1.408.32-1.344 3.84-11.072 4.48-12.672H30.76zm-14.912-2.304c.448-1.6 6.528-17.984 6.848-18.816.192-.512.448-.96.704-.96.192 0 .32.448.512.896.32.96 5.504 16.96 6.08 18.88H15.848zm52.139 4.88c0 3.936-.096 10.272-.24 11.376-.192 1.536-.433 2.112-1.92 2.112h-2.304c-.337 0-.433.096-.433.336v1.248c0 .192.096.288.672.288.912 0 3.745-.144 6.144-.144 2.016 0 3.888.144 7.2.144 4.416 0 7.153-.48 9.169-1.728 2.207-1.392 3.695-4.752 3.695-7.2 0-5.088-3.12-7.968-7.775-9.504l-.144-.096c3.743-1.968 5.855-3.168 5.855-7.92 0-2.832-.96-5.04-3.696-6.528-1.68-.96-4.751-1.296-8.495-1.296-1.68 0-4.56.144-6.097.144-3.456 0-5.615-.144-6.383-.144-.288 0-.385.096-.385.336v1.2c0 .24.096.336.384.336h1.488c2.209 0 2.977.096 3.12 2.88.049.864.145 6.72.145 8.496v5.664zm4.224-2.16h1.535c2.209 0 4.465.048 6.433.816 2.831 1.104 4.8 3.648 4.8 7.536 0 5.712-3.697 7.632-7.728 7.632-3.985 0-5.04-1.968-5.04-6.384v-9.6zm0-5.184c0-3.984.047-8.16.096-9.12a.88.88 0 01.671-.864c.385-.096.913-.048 1.585-.048 2.447 0 4.847.432 6.575 1.632 1.776 1.296 2.352 3.216 2.352 5.04 0 2.112-.72 4.272-2.688 5.76-1.152.816-3.312 1.248-6.048 1.248-.816 0-1.632 0-2.544-.096V25.44zm37.063 7.344c0 3.936-.096 10.272-.24 11.376-.192 1.536-.432 2.112-1.92 2.112h-2.304c-.336 0-.432.096-.432.336v1.248c0 .192.096.288.672.288.912 0 3.744-.144 6.144-.144 2.016 0 3.888.144 7.2.144 4.416 0 7.152-.48 9.168-1.728 2.208-1.392 3.696-4.752 3.696-7.2 0-5.088-3.12-7.968-7.776-9.504l-.144-.096c3.744-1.968 5.856-3.168 5.856-7.92 0-2.832-.96-5.04-3.696-6.528-1.68-.96-4.752-1.296-8.496-1.296-1.68 0-4.56.144-6.096.144-3.456 0-5.616-.144-6.384-.144-.288 0-.384.096-.384.336v1.2c0 .24.096.336.384.336h1.488c2.208 0 2.976.096 3.12 2.88.048.864.144 6.72.144 8.496v5.664zm4.224-2.16h1.536c2.208 0 4.464.048 6.432.816 2.832 1.104 4.8 3.648 4.8 7.536 0 5.712-3.696 7.632-7.728 7.632-3.984 0-5.04-1.968-5.04-6.384v-9.6zm0-5.184c0-3.984.048-8.16.096-9.12a.88.88 0 01.672-.864c.384-.096.912-.048 1.584-.048 2.448 0 4.848.432 6.576 1.632 1.776 1.296 2.352 3.216 2.352 5.04 0 2.112-.72 4.272-2.688 5.76-1.152.816-3.312 1.248-6.048 1.248-.816 0-1.632 0-2.544-.096V25.44zm41.864-9.888l8.544.192c1.296.048 2.64.624 3.648 1.296 1.152.72 4.704 5.28 4.8 5.472.048.096.24.24.384.144l.72-.384c.192-.096.192-.24.144-.432-.144-.48-2.256-7.056-2.448-7.728-.048-.144-.144-.24-.384-.24-.24 0-1.152.096-1.92.096-4.752 0-9.504.048-14.256.048h-2.112c-3.168 0-4.848-.144-5.904-.144-.24 0-.336.096-.336.24v1.296c0 .288.144.336.384.336h1.728c1.776 0 2.256.336 2.448 1.872.048.48.144 6.48.144 10.464v16.08c0 1.776-.192 2.112-2.4 2.112h-1.92c-.336 0-.48.048-.48.24v1.296c0 .24.144.336.432.336.432 0 1.056-.048 2.064-.096.96 0 2.304-.048 4.08-.048 7.488 0 12.144.048 15.024.048 2.88.048 3.936.096 4.176.096.576 0 .912-.288 1.056-.72l2.544-7.056c.144-.384.144-.528-.096-.672l-.768-.432c-.288-.144-.432.048-.576.288-.672 1.104-3.36 4.56-3.936 5.04-1.248 1.056-3.36 1.584-4.176 1.68-1.008.096-3.408.144-4.224.144-1.2 0-2.592-.144-3.552-.336-1.488-.288-2.688-1.248-2.736-3.744 0-.96-.096-5.616-.096-8.208v-2.976c.768 0 4.08 0 6.336.24 1.248.144 1.776.864 2.064 1.872.144.528.432 1.632.528 2.256.048.336.144.48.384.432l1.056-.144c.192-.048.288-.144.288-.384-.096-1.008-.288-3.312-.288-4.992 0-.72 0-4.656.144-5.472.048-.192-.048-.384-.288-.384l-1.2-.048c-.192 0-.336.096-.336.336-.048.912-.24 1.872-.384 2.352-.432 1.488-.816 1.872-2.208 2.112-.576.096-5.712.288-6.096.288V15.552zm48.466 17.232c1.824-2.64 10.416-15.072 11.376-15.984.816-.768 1.632-1.056 2.352-1.056h1.2c.336 0 .384-.144.384-.432V14.16c0-.192-.048-.288-.384-.288-.432 0-1.488.144-4.32.144-3.216 0-5.184-.144-5.664-.144-.288 0-.336.096-.336.288v1.152c0 .288.048.432.336.432h1.296c2.016 0 1.776 1.056 1.584 1.872-.192.864-6.912 10.848-8.688 13.632-1.44-2.736-7.344-13.152-7.488-13.92-.192-1.152 0-1.584 1.44-1.584h1.584c.288 0 .336-.192.336-.432v-1.2c0-.144-.048-.24-.336-.24-.48 0-2.208.144-7.152.144-2.928 0-5.184-.144-5.616-.144-.288 0-.336.096-.336.288v1.248c0 .192.048.336.336.336h1.2c.768 0 1.872.432 2.496 1.152 1.392 1.68 9.36 15.216 9.984 16.464v2.784c0 4.464-.096 8.256-.144 8.928-.048.72-.432 1.2-1.68 1.2h-2.352c-.288 0-.336.144-.336.336v1.152c0 .24.096.384.288.384.528 0 2.016-.144 6.336-.144 4.032 0 5.904.144 6.48.144.336 0 .336-.144.336-.432v-1.104c0-.192 0-.336-.336-.336h-1.872c-1.248 0-1.968-.144-2.112-1.68-.048-.528-.192-3.648-.192-5.52v-6.288z" class="ABBEY"/>
  <defs>
    <linearGradient id="paint0_linear_60_157" x1="219" x2="1.001" y1="26.474" y2="26.106" class="paint0_linear_60_157" gradientUnits="userSpaceOnUse">
      <stop offset=".078" stop-color="#E3C575"/>
      <stop offset=".359" stop-color="#F1DEAE"/>
      <stop offset=".604" stop-color="#E3C575"/>
      <stop offset=".837" stop-color="#9F8762"/>
    </linearGradient>
  </defs>
</svg>
