<svg xmlns="http://www.w3.org/2000/svg" width="277" height="68" fill="none" viewBox="0 0 277 68">
  <path fill="url(#paint0_linear_129_269)" d="M54.15 26.552c-.108-.396.054-.648.522-.648h.306c.126 0 .144-.054.144-.144v-.45c0-.054-.018-.108-.144-.108-.18 0-.918.054-2.214.054-1.224 0-1.782-.054-1.926-.054-.126 0-.144.036-.144.126v.432c0 .072.018.144.108.144h.612c.342 0 .594.144.774.648l4.014 11.52c.072.216.18.288.324.288.162 0 .27-.162.36-.342.108-.198 3.384-9.45 3.546-9.936h.036l3.33 9.882c.09.252.18.396.396.396.198 0 .288-.27.378-.468.36-.864 4.122-11.25 4.266-11.502.162-.288.414-.486.72-.486h.432c.126 0 .126-.054.126-.126v-.45c0-.09-.018-.126-.126-.126-.144 0-.666.054-1.674.054-1.116 0-1.746-.054-1.926-.054-.126 0-.144.054-.144.126v.414c0 .108.018.162.126.162h.486c.486 0 .63.27.63.558 0 1.026-2.61 8.622-2.808 9.198h-.036l-2.808-9.036c-.108-.324.054-.72.504-.72h.72c.108 0 .126-.054.126-.126v-.45c0-.072-.018-.126-.126-.126-.18 0-.864.054-2.376.054-1.404 0-2.034-.054-2.196-.054-.108 0-.126.054-.126.126v.432c0 .108.018.144.108.144h.45c.324 0 .558.126.72.342.162.216.288.522.27.666-.072.756-2.754 8.442-2.826 8.748h-.036l-2.898-9.108zm18.573 11.664c2.214 0 3.978-1.998 3.978-3.96 0-1.17-.414-2.106-1.224-2.934-.54-.54-1.53-1.044-2.52-1.044-.594 0-1.476.144-2.412.864-1.062.828-1.548 1.98-1.548 2.898 0 1.278.162 1.944.99 2.934.756.9 1.872 1.242 2.736 1.242zm.216-.54c-.846 0-1.368-.342-1.782-.936-.576-.828-.684-1.512-.684-2.52 0-1.368.252-2.106.954-2.826.432-.468.9-.576 1.386-.576.918 0 2.376 1.26 2.376 3.258 0 1.926-.882 3.6-2.25 3.6zm12.37-5.292c0-.45-.45-1.35-.99-1.71-.433-.288-.99-.396-1.53-.396-.9 0-1.945.666-2.467 1.314h-.036l-.126-1.098c-.018-.144-.054-.216-.144-.216-.072 0-.18.054-.324.126l-1.548.864c-.09.036-.162.09-.162.18v.09c0 .054.018.108.144.162l.144.072c.45.216.738.522.738 1.062v4.212c0 .306-.126.36-.36.36h-.522c-.144 0-.18.054-.18.162v.324c0 .108.036.162.126.162.108 0 .684-.054 1.602-.054.954 0 1.44.054 1.566.054.09 0 .126-.054.126-.162v-.306c0-.126-.036-.18-.18-.18h-.45c-.378 0-.432-.108-.432-.594v-3.726c0-.342.054-.828.414-1.224.54-.576 1.17-.702 1.458-.702.45 0 .882 0 1.314.324.522.378.522.9.522 1.62v2.376c0 .468-.018 1.044-.036 1.512-.018.324-.162.414-.36.414h-.522c-.18 0-.234.036-.234.162v.288c0 .144.036.198.144.198.126 0 .702-.054 1.62-.054 1.026 0 1.584.054 1.71.054.108 0 .144-.072.144-.198v-.288c0-.108-.036-.162-.198-.162h-.576c-.234 0-.396-.09-.396-.378v-4.644zM98.143 38c.216 0 .252-.054.252-.252v-3.114h1.386c.235 0 .289-.072.289-.18v-.864c0-.108-.09-.144-.216-.144h-1.459v-7.2c0-.414-.072-.54-.234-.54-.144 0-.288.144-.396.288l-5.85 8.064c-.126.18-.18.252-.18.36 0 .144.108.216.27.216h5.022v3.168c0 .162.054.198.216.198h.9zm-1.098-4.464h-3.528c-.323 0-.341-.18-.126-.486l3.313-4.572c.162-.234.341-.18.341.108v4.95zm10.403-1.242c0 1.476-.036 3.852-.09 4.266-.072.576-.162.792-.72.792h-.864c-.126 0-.162.036-.162.126v.468c0 .072.036.108.252.108.342 0 1.404-.054 2.304-.054.756 0 1.458.054 2.7.054 1.656 0 2.682-.18 3.438-.648.828-.522 1.386-1.782 1.386-2.7 0-1.908-1.17-2.988-2.916-3.564l-.054-.036c1.404-.738 2.196-1.188 2.196-2.97 0-1.062-.36-1.89-1.386-2.448-.63-.36-1.782-.486-3.186-.486-.63 0-1.71.054-2.286.054-1.296 0-2.106-.054-2.394-.054-.108 0-.144.036-.144.126v.45c0 .09.036.126.144.126h.558c.828 0 1.116.036 1.17 1.08.018.324.054 2.52.054 3.186v2.124zm1.584-.81h.576c.828 0 1.674.018 2.412.306 1.062.414 1.8 1.368 1.8 2.826 0 2.142-1.386 2.862-2.898 2.862-1.494 0-1.89-.738-1.89-2.394v-3.6zm0-1.944c0-1.494.018-3.06.036-3.42a.33.33 0 01.252-.324c.144-.036.342-.018.594-.018.918 0 1.818.162 2.466.612.666.486.882 1.206.882 1.89 0 .792-.27 1.602-1.008 2.16-.432.306-1.242.468-2.268.468-.306 0-.612 0-.954-.036V29.54zm15.464 3.456c.252.72.99 3.024 1.134 3.672.126.504-.036.684-.54.684h-.45c-.108 0-.162.018-.162.126v.414c0 .108.054.162.144.162.414 0 1.044-.054 2.538-.054 1.458 0 1.836.054 2.16.054.126 0 .18-.036.18-.126v-.45c0-.072-.036-.126-.144-.126h-.594c-.45 0-.918-.216-1.224-.81-.252-.522-1.422-3.87-1.836-5.274-.342-1.152-1.746-5.184-2.088-6.318-.054-.198-.09-.306-.198-.306-.09 0-.144.072-.234.162-.198.252-.99.792-1.494.9-.126.036-.162.108-.162.162 0 .072.072.162.126.234.126.198.036.432-.018.612-.162.486-1.62 4.356-1.746 4.716-.522 1.476-1.836 4.806-1.962 5.094-.252.576-.504.828-1.044.828h-.63c-.072 0-.144.036-.144.126v.432c0 .108.036.144.126.144.252 0 .648-.054 1.962-.054 1.062 0 1.8.054 2.052.054.09 0 .144-.036.144-.162v-.414c0-.09-.054-.126-.18-.126h-.846c-.396 0-.612-.144-.612-.396 0-.09.036-.27.054-.396.09-.378 1.08-3.114 1.26-3.564h4.428zm-4.194-.648c.126-.45 1.836-5.058 1.926-5.292.054-.144.126-.27.198-.27.054 0 .09.126.144.252.09.27 1.548 4.77 1.71 5.31h-3.978zm11.721-1.116c0 3.096-.036 5.364-.072 5.724-.018.324-.162.396-.63.396h-.81c-.072 0-.126.018-.126.09v.486c0 .09.036.126.108.126.27 0 .954-.054 2.358-.054 1.548 0 2.268.054 2.448.054.108 0 .144-.036.144-.144v-.45c0-.072-.054-.108-.162-.108h-.882c-.612 0-.702-.09-.702-.576 0-.27-.018-3.294-.018-3.834v-.666c.288 0 1.602 0 2.448.108.396.054.612.27.738.702.054.198.18.738.198.882.018.09.036.144.126.126l.342-.072c.09-.018.126-.054.126-.144-.036-.36-.09-1.224-.09-1.872 0-.252 0-1.746.036-2.052 0-.072-.036-.126-.108-.126l-.36-.018c-.072 0-.108.054-.126.126a9.257 9.257 0 01-.18.882c-.162.558-.396.72-.792.792-.216.036-2.106.09-2.358.09v-.9c0-1.098.018-4.716.018-4.95.54 0 3.402.054 3.852.162.522.126.954.432 1.26.846.522.702.99 1.368 1.152 1.656.054.108.09.144.144.126l.324-.126c.036-.018.054-.054.036-.126-.126-.468-.666-2.898-.72-3.204-.288.09-6.606.072-6.912.072-.864 0-1.476-.018-1.89-.036-.414 0-.63-.018-.738-.018-.072 0-.126.036-.126.108v.486c0 .072.054.108.126.108h1.044c.486 0 .738.18.738.522 0 .216.036 2.754.036 3.546v1.26zm14.849-.702c0 .342 0 5.868-.054 6.39-.018.216-.234.432-.594.432h-1.224c-.108 0-.126.054-.126.18v.342c0 .108.018.18.162.18.252 0 1.008-.054 2.736-.054 1.764 0 2.34.054 2.52.054.162 0 .18-.054.18-.144v-.378c0-.126-.018-.18-.18-.18h-1.134c-.432 0-.576-.27-.612-.72-.018-.306-.018-5.346-.018-5.598v-5.13h.504c.882 0 2.574.036 3.114.306.594.288 1.134 1.674 1.278 2.016.054.126.072.144.144.126l.288-.072c.09-.018.126-.054.108-.144-.144-.792-.486-3.024-.522-3.24-.036-.234-.072-.288-.162-.288a.383.383 0 00-.216.072l-.342.216c-.306.18-.54.234-.936.252-.882.036-1.656.108-3.618.108h-.864c-1.692 0-2.448-.072-3.402-.108-.522-.018-.702-.072-1.026-.306l-.234-.162a.314.314 0 00-.216-.072c-.072 0-.144.054-.18.288-.036.198-.666 2.52-.846 3.168-.036.108.018.126.072.144l.324.09c.09.018.144 0 .18-.09.252-.576.792-1.836 1.602-2.088.702-.216 2.268-.216 2.844-.216h.45v4.626zm13.677 2.466c.252.72.99 3.024 1.134 3.672.126.504-.036.684-.54.684h-.45c-.108 0-.162.018-.162.126v.414c0 .108.054.162.144.162.414 0 1.044-.054 2.538-.054 1.458 0 1.836.054 2.16.054.126 0 .18-.036.18-.126v-.45c0-.072-.036-.126-.144-.126h-.594c-.45 0-.918-.216-1.224-.81-.252-.522-1.422-3.87-1.836-5.274-.342-1.152-1.746-5.184-2.088-6.318-.054-.198-.09-.306-.198-.306-.09 0-.144.072-.234.162-.198.252-.99.792-1.494.9-.126.036-.162.108-.162.162 0 .072.072.162.126.234.126.198.036.432-.018.612-.162.486-1.62 4.356-1.746 4.716-.522 1.476-1.836 4.806-1.962 5.094-.252.576-.504.828-1.044.828h-.63c-.072 0-.144.036-.144.126v.432c0 .108.036.144.126.144.252 0 .648-.054 1.962-.054 1.062 0 1.8.054 2.052.054.09 0 .144-.036.144-.162v-.414c0-.09-.054-.126-.18-.126h-.846c-.396 0-.612-.144-.612-.396 0-.09.036-.27.054-.396.09-.378 1.08-3.114 1.26-3.564h4.428zm-4.194-.648c.126-.45 1.836-5.058 1.926-5.292.054-.144.126-.27.198-.27.054 0 .09.126.144.252.09.27 1.548 4.77 1.71 5.31h-3.978zm22.141.648c.252.72.99 3.024 1.134 3.672.126.504-.036.684-.54.684h-.45c-.108 0-.162.018-.162.126v.414c0 .108.054.162.144.162.414 0 1.044-.054 2.538-.054 1.458 0 1.836.054 2.16.054.126 0 .18-.036.18-.126v-.45c0-.072-.036-.126-.144-.126h-.594c-.45 0-.918-.216-1.224-.81-.252-.522-1.422-3.87-1.836-5.274-.342-1.152-1.746-5.184-2.088-6.318-.054-.198-.09-.306-.198-.306-.09 0-.144.072-.234.162-.198.252-.99.792-1.494.9-.126.036-.162.108-.162.162 0 .072.072.162.126.234.126.198.036.432-.018.612-.162.486-1.62 4.356-1.746 4.716-.522 1.476-1.836 4.806-1.962 5.094-.252.576-.504.828-1.044.828h-.63c-.072 0-.144.036-.144.126v.432c0 .108.036.144.126.144.252 0 .648-.054 1.962-.054 1.062 0 1.8.054 2.052.054.09 0 .144-.036.144-.162v-.414c0-.09-.054-.126-.18-.126h-.846c-.396 0-.612-.144-.612-.396 0-.09.036-.27.054-.396.09-.378 1.08-3.114 1.26-3.564h4.428zm-4.194-.648c.126-.45 1.836-5.058 1.926-5.292.054-.144.126-.27.198-.27.054 0 .09.126.144.252.09.27 1.548 4.77 1.71 5.31h-3.978zm16.126-.684c-.072-.27.072-.468.252-.468h.378c.09 0 .126-.054.126-.144v-.378c0-.09-.036-.126-.162-.126-.144 0-.54.054-1.368.054-.9 0-1.476-.054-1.62-.054-.108 0-.162.036-.162.144v.378c0 .09.036.126.126.126h.27c.252 0 .396.054.486.18.108.144.126.288.162.576l-1.836 4.392h-.072l-1.422-4.77c-.108-.324.018-.486.216-.486h.162c.126 0 .144-.054.144-.144v-.36c0-.108-.036-.144-.144-.144-.27 0-.702.054-1.512.054-1.026 0-1.386-.054-1.638-.054-.09 0-.108.054-.108.144v.342c0 .108.018.162.126.162h.396c.432 0 .63.144.756.486l2.358 6.336c.072.216.162.36.306.36s.288-.072.378-.288l2.214-5.184h.09l1.764 5.13c.072.216.198.342.324.342.144 0 .27-.036.342-.234.234-.576 2.52-6.3 2.736-6.642a.768.768 0 01.576-.306h.45c.09 0 .126-.054.126-.144v-.378c0-.072-.036-.126-.126-.126-.216 0-.54.054-1.314.054-.738 0-1.278-.054-1.386-.054-.072 0-.126.036-.126.126v.378c0 .09.018.144.108.144h.252c.36 0 .504.36.27.99l-1.458 3.96h-.072l-1.368-4.374zm10.918 3.132v-2.754c0-.486-.018-.9-.396-1.278-.252-.234-.594-.486-1.44-.486-.81 0-1.44.18-2.196.63-.738.432-1.242 1.116-1.242 1.692 0 .414.144.576.432.576.738 0 .954-.396.954-1.026 0-.324-.162-.594.09-.828.252-.234.81-.378 1.17-.378.522 0 .882.162 1.08.396.198.234.216.702.252 1.008V33.5c-.288.252-1.224.684-2.034 1.044-1.422.63-1.8 1.35-1.8 2.178 0 1.134.648 1.494 1.08 1.494.396 0 .72 0 1.062-.108.81-.27 1.404-.648 1.782-1.098h.036c.162.738.63 1.206 1.278 1.206.918 0 1.26-.612 1.404-.882.108-.18.072-.27.018-.324l-.18-.144c-.072-.054-.108-.018-.18.072-.09.126-.342.27-.63.27-.324 0-.54-.324-.54-1.35v-1.062zm-1.314 1.458c0 .486-.954 1.116-1.476 1.116-.54 0-.936-.324-.936-.99 0-1.494 1.764-1.854 2.412-2.34v2.214zm4.693-1.35c0 .936 0 1.566-.018 2.16 0 .234-.126.342-.396.342h-.702c-.162 0-.198.036-.198.162v.306c0 .144.036.18.108.18.108 0 .864-.054 1.98-.054.972 0 1.8.054 1.908.054.072 0 .09-.054.09-.162v-.324c0-.108-.018-.162-.126-.162h-.846c-.378 0-.504-.18-.504-.738v-3.78c0-.054.072-.378.18-.576.306-.576.774-.756 1.062-.756.234 0 .45.054.594.144.144.072.324.144.522.144.324 0 .756-.36.756-.882 0-.414-.306-.792-.918-.792-.774 0-1.62.738-2.16 1.566h-.072l-.09-1.242c0-.108-.018-.216-.126-.216a.542.542 0 00-.252.072l-1.782.918c-.108.054-.144.09-.144.162v.108c0 .072.036.09.144.126l.342.18c.504.27.648.45.648 1.368v1.692zm10.747-4.356a6.715 6.715 0 00-1.926-.27c-1.008 0-1.98.378-2.682 1.134a4.29 4.29 0 00-1.26 3.06c0 1.206.216 2.016 1.134 2.916.846.864 1.53.828 2.124.828.918 0 2.07-.396 2.646-.972l.234.792c.036.126.126.18.234.144l2.034-.684c.108-.036.144-.09.126-.198l-.036-.144c-.036-.09-.108-.108-.36-.126-.252-.018-.63-.126-.792-.306-.144-.18-.18-.972-.18-1.638v-3.978c0-2.286.018-4.896.072-5.796.018-.198 0-.324-.09-.324-.126 0-.252.036-.414.054-.342.072-1.278.234-1.98.378-.108.018-.144.054-.144.126v.306c0 .072.018.108.126.126 1.008.162 1.134.378 1.134 1.062v3.51zm0 5.292c0 .198-.018.342-.108.612-.18.468-.954.99-1.962.99-1.044 0-2.448-1.476-2.448-3.51 0-.684.126-1.638.828-2.394.468-.486 1.08-.648 1.638-.648 1.062 0 1.638.486 1.89.972.162.288.162.63.162.882v3.096zm5.841 2.376c1.53 0 2.718-.918 2.736-2.376-.018-1.386-.846-1.926-2.16-2.304-.882-.252-1.728-.45-1.728-1.494 0-.774.702-1.188 1.386-1.188.702 0 1.044.36 1.26.702l.612.828c.054.09.09.108.162.09l.216-.072c.09-.036.126-.09.126-.162l-.27-1.26c-.018-.108-.054-.198-.324-.324-.324-.162-.792-.378-1.656-.378-1.35 0-2.52.954-2.52 2.196 0 1.422 1.062 1.98 2.124 2.286 1.35.378 1.746.846 1.746 1.656 0 .846-.792 1.224-1.422 1.224-.954 0-1.206-.45-1.566-1.116l-.45-.882c-.036-.09-.09-.126-.162-.108l-.234.054c-.072.018-.126.054-.108.144l.306 1.71c.018.09.018.198.108.252.216.162.936.522 1.818.522z"/>
  <g clip-path="url(#clip0_129_269)">
    <path fill="#9F8762" d="M33.645 6.042c-.148.03-.711.126-1.249.223-3.808.681-5.999 2.011-7.053 4.274-.233.49-.492 1.36-.553 1.851l-.033.29.284.038c1.173.156 1.87.158 2.66.002 1.98-.403 3.633-1.8 5.079-4.308.32-.549 1.174-2.212 1.212-2.354.018-.065-.039-.067-.347-.016zM22.988 5.801c-1.863 1.99-2.872 3.585-3.307 5.208-.218.811-.275 1.265-.245 1.94.033.878.368 2.015.803 2.754l.238.4.584-.345a6.326 6.326 0 001.736-1.42c.526-.601.85-1.188 1.124-2.022.484-1.495.46-3.292-.07-5.966-.131-.632-.246-1.158-.258-1.161-.012-.003-.284.273-.605.612zM29.46 13.547c-2.58.159-4.184.535-5.623 1.324-1.505.822-2.411 1.937-3.002 3.664l-.207.605.84.187c3.12.69 5.556-.53 7.944-3.978.469-.674 1.19-1.814 1.166-1.846-.01-.009-.508.01-1.117.044zM16.886 12.323c-.077.074-.995 1.638-1.257 2.139-1.468 2.83-1.755 5.191-.872 7.193.143.324.369.746.504.934.309.445.753 1.008.806 1.023.066.017.761-.621 1.162-1.066.614-.693.93-1.25 1.21-2.177.189-.61.258-.915.283-1.32.082-1.382-.163-2.685-.852-4.526-.367-.969-.934-2.244-.984-2.2zM23.176 20.299c-1.406.474-1.998.728-3.019 1.292-2.125 1.176-3.29 2.565-3.709 4.44-.197.88-.245 1.87-.09 1.912.43.115 1.925-.075 2.73-.355 1.728-.584 3.167-2.134 4.153-4.454.324-.757.908-2.46.994-2.9l.067-.32-1.126.385zM11.12 20.648c-.01.112-.073.463-.138.776-.844 4.249-.19 7.204 1.986 9.006.324.271 1.249.875 1.392.913.054.014.408-.64.66-1.22.244-.556.482-1.68.481-2.251-.015-1.877-.846-3.642-2.717-5.775-.476-.54-1.518-1.613-1.59-1.632-.03-.008-.065.078-.074.183zM21.142 27.46c-1.38.855-2.142 1.406-2.916 2.126-2.03 1.874-2.804 3.952-2.364 6.317.127.694.11.664.454.598a8.709 8.709 0 001.998-.728c1.218-.658 2.126-1.684 2.718-3.061.274-.638.676-2.212.796-3.113.1-.754.254-2.592.219-2.652-.015-.017-.415.212-.905.513zM7.805 28.87a17.9 17.9 0 00.23 1.12c.443 1.998.844 3.103 1.562 4.336.706 1.205 1.439 1.979 2.457 2.569.404.235.602.307 1.509.55.572.154 1.12.281 1.223.277.166 0 .177-.016.205-.262.297-2.517-.421-4.347-2.345-5.973-.949-.8-2.089-1.461-3.862-2.241-1.051-.466-.965-.43-.98-.377zM20.707 35.405c-3.506 2.73-4.894 5.189-4.48 7.94.084.543.234 1.13.386 1.468l.087.201.375-.134c1.617-.57 2.763-1.482 3.542-2.815.303-.51.348-.63.635-1.703.326-1.214.385-1.648.412-2.968.016-.897-.055-2.585-.109-2.6-.024-.006-.411.27-.848.611zM22.836 41.085c-.923 1.06-1.467 1.778-1.967 2.615-1.27 2.091-1.58 4.11-.926 5.986.201.561.67 1.487.771 1.514.131.035 1.298-.763 1.767-1.203 1.445-1.358 2.04-3.173 1.868-5.707-.044-.742-.557-3.552-.717-3.956-.038-.1-.148.004-.796.751zM7.294 36.026c-.026.094.671 2.027 1.003 2.77.416.93 1.178 2.213 1.663 2.787.486.575 1.158 1.168 1.744 1.534.445.272.571.325 1.526.58.9.248 1.119.287 1.627.297l.58.009v-.457c-.03-3.15-1.674-5.203-5.324-6.638-.89-.353-2.8-.953-2.82-.882zM25.87 45.967c-.708 1.613-1.292 3.482-1.442 4.59-.152 1.165-.067 2.35.236 3.294.208.634.768 1.596 1.232 2.108.355.393.845.855.935.879.137.036 1.047-1.167 1.416-1.874.288-.551.584-1.773.583-2.415 0-1.142-.23-2.194-.753-3.439-.285-.68-1.403-2.712-1.806-3.283l-.214-.299-.188.439zM11.998 44.237c-.558-.086-2.557-.31-2.595-.29-.045.027 1.147 2.022 1.535 2.577.953 1.36 2.144 2.523 3.188 3.133.952.553 2.15.855 3.227.82.708-.02 1.52-.158 1.546-.259.04-.148-.242-1.195-.486-1.787-.652-1.602-1.852-2.73-3.669-3.465-.572-.229-1.999-.605-2.746-.729zM29.706 52.359c-.022.083.174 1.38.332 2.196.308 1.593.695 2.75 1.264 3.754.713 1.276 1.552 2.104 2.753 2.73.416.214 2.038.699 2.143.638.09-.046.246-1.203.249-1.786a7.562 7.562 0 00-.118-1.136c-.42-2.297-2.043-4.02-5.508-5.856-.958-.505-1.104-.582-1.115-.54zM18.32 51.422c-.086-.01-.348-.036-.59-.063-.919-.1-2.649-.063-4.306.11l-.19.018.308.375a22.133 22.133 0 002.319 2.417c1.337 1.165 2.286 1.705 3.575 2.05.938.245 1.674.29 2.552.138.509-.086 1.637-.431 1.746-.529.08-.08-.111-.563-.507-1.278-.601-1.075-1.332-1.83-2.32-2.393-.377-.215-.667-.325-1.451-.547-.54-.158-1.047-.294-1.135-.298zM25.491 57.304c-1.627-.227-3.687.16-6.274 1.175l-.714.279.159.125c.316.25 1.503 1 2.137 1.353 1.035.576 1.608.825 2.602 1.123 1.72.524 3.076.52 4.468-.022.508-.2 1.345-.674 1.737-.994l.26-.21-.3-.379c-1.113-1.383-2.539-2.241-4.075-2.45zM32.544 61.93c-1.947-.25-4.115.325-7.317 1.943-.08.036.065.138.73.494 1.73.94 2.456 1.242 3.841 1.607 1.491.4 2.47.446 3.628.178.954-.22 1.93-.733 2.746-1.441l.43-.367-.31-.344c-1.028-1.126-2.431-1.902-3.748-2.07z"/>
  </g>
  <g clip-path="url(#clip1_129_269)">
    <path fill="#9F8762" d="M242.014 5.043c.005.018.193.41.424.865.842 1.712 1.405 2.598 2.273 3.593 1.427 1.651 3.007 2.417 4.93 2.388.581-.002 1.591-.125 1.636-.195.013-.023-.101-.497-.252-1.058-.24-.895-.31-1.087-.554-1.495-.948-1.607-2.504-2.713-4.805-3.4-.682-.208-2.256-.547-3.086-.664-.553-.082-.579-.081-.566-.034zM252.198 5.205c-.357 1.771-.492 3.055-.44 4.275.036.899.42 2.33.804 3.001.548.947 1.296 1.687 2.357 2.33l.642.39.178-.29c.479-.787.84-2.067.862-3.032.02-.978-.31-2.303-.835-3.358-.304-.609-1.053-1.732-1.652-2.467-.496-.609-1.632-1.865-1.68-1.852-.018.005-.121.454-.236 1.003zM245.445 12.598c.037.137 1.444 2.216 1.833 2.713 1.753 2.222 3.537 3.273 5.599 3.309.971.02 2.457-.256 2.473-.458.005-.053-.103-.408-.242-.786-1.101-2.986-3.519-4.397-8.119-4.744-1.163-.092-1.562-.1-1.544-.034zM258.89 11.828c-1.26 2.864-1.729 4.812-1.555 6.486.068.685.451 1.875.771 2.403.324.54.887 1.207 1.422 1.678.479.428.418.438.877-.14 1.845-2.323 1.841-5.13.001-8.703-.317-.612-1.195-2.098-1.264-2.143-.031-.017-.146.173-.252.42zM252.008 20.055c1.148 3.663 2.524 5.648 4.531 6.53.891.388 2.203.631 3.012.549l.256-.024-.012-.591c-.019-.859-.384-2.245-.774-2.914-.713-1.229-1.91-2.283-3.534-3.12-.875-.45-2.454-1.07-3.529-1.383l-.271-.08.321 1.033zM264.123 20.313c-1.61 1.672-2.578 3.025-3.075 4.297-.58 1.485-.634 2.785-.182 4.186.188.583.533 1.347.737 1.631l.091.123.378-.21c2.176-1.235 3.299-3.295 3.352-6.174.018-.817-.107-2.19-.294-3.221-.21-1.19-.248-1.404-.266-1.4-.006.002-.342.348-.741.768zM254.013 26.392c.155 3.035.689 5.22 1.616 6.628.912 1.399 2.121 2.213 3.955 2.662.26.064.477.109.487.1.003-.014.057-.265.118-.563.233-1.136.175-2.163-.162-3.205-.655-1.993-2.307-3.718-5.258-5.473l-.776-.463.02.314zM267.189 28.483c-2.855 1.277-4.456 2.486-5.376 4.063-.484.82-.758 1.801-.797 2.848-.018.433.072 1.535.125 1.565.076.044.884-.09 1.445-.24 2.488-.666 4.131-2.648 5.117-6.174.189-.677.578-2.4.559-2.47-.015-.055-.213.018-1.073.408zM254.428 35.1c-.071 2.193.061 3.52.484 4.884.518 1.671 1.339 2.73 2.763 3.557.637.373 1.67.794 1.744.71.095-.096.393-1.18.454-1.67.204-1.506-.11-2.842-.999-4.324-.39-.643-1.488-1.903-2.261-2.591-.636-.559-2.063-1.711-2.118-1.703-.018.005-.047.518-.067 1.137zM252.338 40.04c-.716 3.007-.819 4.819-.362 6.5.468 1.722 1.502 2.98 3.202 3.887l.222.113.274-.483c1.014-1.8 1.085-3.776.189-5.832-.52-1.203-1.338-2.417-2.62-3.883l-.765-.876-.14.575zM266.624 35.9c-2.479.888-4.117 2.004-4.989 3.402-.676 1.083-.944 2.037-.98 3.454l-.013.502.171.018c.526.051 1.162-.03 2.051-.268.78-.215.996-.292 1.394-.527 1.821-1.076 3.126-3.006 4.244-6.304.161-.472.291-.871.286-.89-.013-.047-1.476.364-2.164.612zM249.205 46.124c-1.119 1.912-1.674 3.276-1.863 4.573-.231 1.597.049 2.929.897 4.256.265.415.871 1.173 1.003 1.26.015.008.194-.136.399-.325 1.526-1.368 2.231-3.175 2.092-5.363-.078-1.245-.589-3.104-1.306-4.78-.186-.43-.348-.82-.359-.862-.01-.036-.043-.065-.067-.059-.024.006-.386.59-.796 1.3zM261.036 44.393c-1.798.808-2.957 2.065-3.528 3.823-.192.595-.337 1.223-.309 1.33.029.108 1.123.275 1.765.263 2.25-.027 4.141-1.18 5.939-3.606.207-.28.7-1.064 1.095-1.739l.726-1.224-.436.04c-1.531.135-2.101.224-3.395.552-.989.245-1.487.392-1.857.561zM246.183 51.743c-.089.05-.57.306-1.063.566-3.76 1.98-5.467 4.151-5.457 6.956.003.537.162 1.748.237 1.791.098.057 1.655-.411 2.114-.63 2.053-.998 3.341-3.018 4.02-6.328.147-.717.383-2.366.343-2.42-.017-.014-.1.008-.194.065zM256.075 51.197a5.969 5.969 0 00-3.109 2.643c-.307.523-.659 1.308-.632 1.41.024.09 1.008.42 1.597.544.885.178 1.561.17 2.5-.05 1.517-.349 2.789-1.092 4.279-2.521.5-.473 2.16-2.319 2.144-2.378-.014-.054-2.313-.212-3.131-.21-1.356-.001-2.695.204-3.648.562zM248.94 57.163a7.275 7.275 0 00-1.517 1.02c-.31.276-.899.939-1.061 1.193l-.1.155.346.265c.869.663 2.059 1.169 3.04 1.296 1.531.204 3.311-.216 5.291-1.251.723-.38 2.668-1.617 2.648-1.688-.012-.048-1.819-.728-2.418-.913-1.362-.428-2.632-.638-3.69-.623-.842.008-1.91.243-2.539.546zM242.313 61.638c-.917.373-1.814 1.01-2.542 1.8l-.262.287.438.395c.838.74 2.127 1.374 3.114 1.525 2.021.316 4.278-.283 7.215-1.92l.713-.396-.904-.436c-1.776-.854-2.781-1.218-4.057-1.47-1.41-.275-2.694-.2-3.715.215z"/>
  </g>
  <defs>
    <clipPath id="clip0_129_269">
      <path fill="#fff" d="M0 0h37v59H0z" transform="rotate(15 3.837 58.495)"/>
    </clipPath>
    <clipPath id="clip1_129_269">
      <path fill="#fff" d="M0 0h37v59.458H0z" transform="rotate(-15 148.87 -849.734)"/>
    </clipPath>
    <linearGradient id="paint0_linear_129_269" x1="225" x2="51.004" y1="32.278" y2="31.459" gradientUnits="userSpaceOnUse">
      <stop offset=".078" stop-color="#E3C575"/>
      <stop offset=".359" stop-color="#F1DEAE"/>
      <stop offset=".604" stop-color="#E3C575"/>
      <stop offset=".837" stop-color="#9F8762"/>
    </linearGradient>
  </defs>
</svg>
