<svg xmlns="http://www.w3.org/2000/svg" width="242" height="38" fill="none" viewBox="0 0 242 38">
  <g class="DA_with_Castle">
    <path fill="url(#paint0_linear_25_31)" d="M184.16 22.328c.336.96 1.32 4.032 1.512 4.896.168.672-.048.912-.72.912h-.6c-.144 0-.216.024-.216.168v.552c0 .144.072.216.192.216.552 0 1.392-.072 3.384-.072 1.944 0 2.448.072 2.88.072.168 0 .24-.048.24-.168v-.6c0-.096-.048-.168-.192-.168h-.792c-.6 0-1.224-.288-1.632-1.08-.336-.696-1.896-5.16-2.448-7.032-.456-1.536-2.328-6.912-2.784-8.424-.072-.264-.12-.408-.264-.408-.12 0-.192.096-.312.216-.264.336-1.32 1.056-1.992 1.2-.168.048-.216.144-.216.216 0 .096.096.216.168.312.168.264.048.576-.024.816-.216.648-2.16 5.808-2.328 6.288-.696 1.968-2.448 6.408-2.616 6.792-.336.768-.672 1.104-1.392 1.104h-.84c-.096 0-.192.048-.192.168v.576c0 .144.048.192.168.192.336 0 .864-.072 2.616-.072 1.416 0 2.4.072 2.736.072.12 0 .192-.048.192-.216v-.552c0-.12-.072-.168-.24-.168h-1.128c-.528 0-.816-.192-.816-.528 0-.12.048-.36.072-.528.12-.504 1.44-4.152 1.68-4.752h5.904zm-5.592-.864c.168-.6 2.448-6.744 2.568-7.056.072-.192.168-.36.264-.36.072 0 .12.168.192.336.12.36 2.064 6.36 2.28 7.08h-5.304zm19 3.098c0 1.148-.028 2.996-.07 3.318-.056.448-.126.616-.56.616h-.672c-.098 0-.126.028-.126.098v.364c0 .056.028.084.196.084.266 0 1.092-.042 1.792-.042.588 0 1.134.042 2.1.042 1.288 0 2.086-.14 2.674-.504.644-.406 1.078-1.386 1.078-2.1 0-1.484-.91-2.324-2.268-2.772l-.042-.028c1.092-.574 1.708-.924 1.708-2.31 0-.826-.28-1.47-1.078-1.904-.49-.28-1.386-.378-2.478-.378-.49 0-1.33.042-1.778.042-1.008 0-1.638-.042-1.862-.042-.084 0-.112.028-.112.098v.35c0 .07.028.098.112.098h.434c.644 0 .868.028.91.84.014.252.042 1.96.042 2.478v1.652zm1.232-.63h.448c.644 0 1.302.014 1.876.238.826.322 1.4 1.064 1.4 2.198 0 1.666-1.078 2.226-2.254 2.226-1.162 0-1.47-.574-1.47-1.862v-2.8zm0-1.512c0-1.162.014-2.38.028-2.66 0-.126.084-.224.196-.252.112-.028.266-.014.462-.014.714 0 1.414.126 1.918.476.518.378.686.938.686 1.47 0 .616-.21 1.246-.784 1.68-.336.238-.966.364-1.764.364-.238 0-.476 0-.742-.028V22.42zm10.81 2.142c0 1.148-.028 2.996-.07 3.318-.056.448-.126.616-.56.616h-.672c-.098 0-.126.028-.126.098v.364c0 .056.028.084.196.084.266 0 1.092-.042 1.792-.042.588 0 1.134.042 2.1.042 1.288 0 2.086-.14 2.674-.504.644-.406 1.078-1.386 1.078-2.1 0-1.484-.91-2.324-2.268-2.772l-.042-.028c1.092-.574 1.708-.924 1.708-2.31 0-.826-.28-1.47-1.078-1.904-.49-.28-1.386-.378-2.478-.378-.49 0-1.33.042-1.778.042-1.008 0-1.638-.042-1.862-.042-.084 0-.112.028-.112.098v.35c0 .07.028.098.112.098h.434c.644 0 .868.028.91.84.014.252.042 1.96.042 2.478v1.652zm1.232-.63h.448c.644 0 1.302.014 1.876.238.826.322 1.4 1.064 1.4 2.198 0 1.666-1.078 2.226-2.254 2.226-1.162 0-1.47-.574-1.47-1.862v-2.8zm0-1.512c0-1.162.014-2.38.028-2.66 0-.126.084-.224.196-.252.112-.028.266-.014.462-.014.714 0 1.414.126 1.918.476.518.378.686.938.686 1.47 0 .616-.21 1.246-.784 1.68-.336.238-.966.364-1.764.364-.238 0-.476 0-.742-.028V22.42zm12.21-2.884l2.492.056c.378.014.77.182 1.064.378.336.21 1.372 1.54 1.4 1.596.014.028.07.07.112.042l.21-.112c.056-.028.056-.07.042-.126-.042-.14-.658-2.058-.714-2.254-.014-.042-.042-.07-.112-.07s-.336.028-.56.028c-1.386 0-2.772.014-4.158.014h-.616c-.924 0-1.414-.042-1.722-.042-.07 0-.098.028-.098.07v.378c0 .084.042.098.112.098h.504c.518 0 .658.098.714.546.014.14.042 1.89.042 3.052v4.69c0 .518-.056.616-.7.616h-.56c-.098 0-.14.014-.14.07v.378c0 .07.042.098.126.098.126 0 .308-.014.602-.028.28 0 .672-.014 1.19-.014 2.184 0 3.542.014 4.382.014.84.014 1.148.028 1.218.028.168 0 .266-.084.308-.21l.742-2.058c.042-.112.042-.154-.028-.196l-.224-.126c-.084-.042-.126.014-.168.084-.196.322-.98 1.33-1.148 1.47-.364.308-.98.462-1.218.49-.294.028-.994.042-1.232.042a5.79 5.79 0 01-1.036-.098c-.434-.084-.784-.364-.798-1.092 0-.28-.028-1.638-.028-2.394v-.868c.224 0 1.19 0 1.848.07.364.042.518.252.602.546.042.154.126.476.154.658.014.098.042.14.112.126l.308-.042c.056-.014.084-.042.084-.112a17.895 17.895 0 01-.084-1.456c0-.21 0-1.358.042-1.596.014-.056-.014-.112-.084-.112l-.35-.014c-.056 0-.098.028-.098.098-.014.266-.07.546-.112.686-.126.434-.238.546-.644.616-.168.028-1.666.084-1.778.084v-4.102zm14.136 5.026c.532-.77 3.038-4.396 3.318-4.662.238-.224.476-.308.686-.308h.35c.098 0 .112-.042.112-.126v-.336c0-.056-.014-.084-.112-.084-.126 0-.434.042-1.26.042-.938 0-1.512-.042-1.652-.042-.084 0-.098.028-.098.084v.336c0 .084.014.126.098.126h.378c.588 0 .518.308.462.546-.056.252-2.016 3.164-2.534 3.976-.42-.798-2.142-3.836-2.184-4.06-.056-.336 0-.462.42-.462h.462c.084 0 .098-.056.098-.126v-.35c0-.042-.014-.07-.098-.07-.14 0-.644.042-2.086.042-.854 0-1.512-.042-1.638-.042-.084 0-.098.028-.098.084v.364c0 .056.014.098.098.098h.35c.224 0 .546.126.728.336.406.49 2.73 4.438 2.912 4.802v.812c0 1.302-.028 2.408-.042 2.604-.014.21-.126.35-.49.35h-.686c-.084 0-.098.042-.098.098v.336c0 .07.028.112.084.112.154 0 .588-.042 1.848-.042 1.176 0 1.722.042 1.89.042.098 0 .098-.042.098-.126v-.322c0-.056 0-.098-.098-.098h-.546c-.364 0-.574-.042-.616-.49a30.29 30.29 0 01-.056-1.61v-1.834z" class="ABBEY"/>
    <path fill="url(#paint1_linear_25_31)" d="M3.432 19.784c0 1.872-.096 7.272-.168 7.776-.048.384-.312.576-.768.576H.888c-.12 0-.192.048-.192.144v.624c0 .12.048.168.168.168.336 0 1.296-.072 3.384-.072 1.08 0 2.904.072 4.416.072 1.848 0 5.16 0 7.464-2.544 1.584-1.728 2.376-3.552 2.376-6.312 0-2.784-1.104-4.776-2.664-6.12-2.112-1.8-4.704-2.16-7.8-2.16-.552 0-2.952.072-3.576.072-2.16 0-3.216-.072-3.528-.072-.096 0-.168.024-.168.12v.648c0 .144.072.168.192.168h1.32c.648 0 .96.096 1.032.672.048.408.12 3.816.12 4.44v1.8zm2.208-1.176c0-.384 0-3.528.024-4.536.024-.528.12-.912.456-1.128.408-.24 1.392-.24 1.92-.24 2.664 0 4.776.936 6.024 2.304 1.152 1.272 1.968 3.432 1.968 5.304 0 2.184-.744 4.152-1.752 5.4-1.2 1.536-3.192 2.592-5.64 2.592-1.2 0-2.16-.264-2.544-.768-.312-.48-.408-.864-.408-1.344a782.403 782.403 0 01-.048-5.88v-1.704zM30.063 29.21c1.932 0 3.178-.84 4.032-1.974.728-.98 1.05-2.044 1.05-3.066 0-1.932-.896-3.304-1.918-4.186-1.106-.924-2.254-1.106-3.136-1.106-1.176 0-2.562.28-3.794 1.778-1.078 1.302-1.302 2.632-1.302 3.486 0 2.044 1.064 3.556 2.058 4.158 1.106.686 2.324.91 3.01.91zm.112-.532c-1.19 0-3.752-1.302-3.752-4.984 0-1.148.462-2.562 1.4-3.458 1.05-.994 2.002-.826 2.212-.826 1.554 0 3.738 1.806 3.738 4.872 0 1.246-.518 4.396-3.598 4.396zm10.541-8.582c-.084-.308.042-.504.406-.504h.238c.098 0 .112-.042.112-.112v-.35c0-.042-.014-.084-.112-.084-.14 0-.714.042-1.722.042-.952 0-1.386-.042-1.498-.042-.098 0-.112.028-.112.098v.336c0 .056.014.112.084.112h.476c.266 0 .462.112.602.504l3.122 8.96c.056.168.14.224.252.224.126 0 .21-.126.28-.266.084-.154 2.632-7.35 2.758-7.728h.028l2.59 7.686c.07.196.14.308.308.308.154 0 .224-.21.294-.364.28-.672 3.206-8.75 3.318-8.946.126-.224.322-.378.56-.378h.336c.098 0 .098-.042.098-.098v-.35c0-.07-.014-.098-.098-.098-.112 0-.518.042-1.302.042-.868 0-1.358-.042-1.498-.042-.098 0-.112.042-.112.098v.322c0 .084.014.126.098.126h.378c.378 0 .49.21.49.434 0 .798-2.03 6.706-2.184 7.154h-.028l-2.184-7.028c-.084-.252.042-.56.392-.56h.56c.084 0 .098-.042.098-.098v-.35c0-.056-.014-.098-.098-.098-.14 0-.672.042-1.848.042-1.092 0-1.582-.042-1.708-.042-.084 0-.098.042-.098.098v.336c0 .084.014.112.084.112h.35a.66.66 0 01.56.266c.126.168.224.406.21.518-.056.588-2.142 6.566-2.198 6.804h-.028l-2.254-7.084zm16.869 3.192c0 2.492-.028 4.088-.056 4.354-.07.686-.224.854-.63.854h-.476c-.07 0-.084.042-.084.084v.364c0 .07.014.098.07.098.14 0 1.106-.042 1.4-.042.378 0 1.218.042 1.358.042.098 0 .112-.028.112-.112v-.308c0-.084-.014-.126-.112-.126h-.42c-.378 0-.462-.266-.518-.812-.028-.28-.14-2.562-.14-3.864v-3.108h.084c.084.112 2.66 3.346 2.814 3.486.084.084 1.106 1.372 2.086 2.59.868 1.092 1.694 2.128 1.708 2.156.042.056.168.224.336.224.056 0 .07-.14.07-.336v-5.236c0-.91 0-2.296.056-3.234.028-.532.168-.77.546-.77h.378c.056 0 .084-.042.084-.098v-.35c0-.056-.014-.098-.112-.098-.182 0-.518.042-1.358.042-.896 0-1.344-.042-1.54-.042-.056 0-.084.028-.084.084v.364c0 .07.028.098.084.098h.448c.392 0 .658.196.77.546.084.238.154 1.61.168 2.156.028.7.042 1.386.042 2.632v1.666h-.056c-.336-.448-2.702-3.346-2.856-3.542-.154-.196-2.87-3.724-2.94-3.808a.486.486 0 00-.406-.182c-.168 0-.462.028-.938.028-.476 0-.784-.014-.994-.028-.21 0-.322-.014-.392-.014s-.084.028-.084.084v.364c0 .042.014.098.084.098l.574.014c.504.014.924.476.924 1.302v2.38zm16.197-.098c0 .266 0 4.564-.042 4.97-.014.168-.182.336-.462.336h-.952c-.084 0-.098.042-.098.14v.266c0 .084.014.14.126.14.196 0 .784-.042 2.128-.042 1.372 0 1.82.042 1.96.042.126 0 .14-.042.14-.112v-.294c0-.098-.014-.14-.14-.14h-.882c-.336 0-.448-.21-.476-.56-.014-.238-.014-4.158-.014-4.354v-3.99h.392c.686 0 2.002.028 2.422.238.462.224.882 1.302.994 1.568.042.098.056.112.112.098l.224-.056c.07-.014.098-.042.084-.112-.112-.616-.378-2.352-.406-2.52-.028-.182-.056-.224-.126-.224a.298.298 0 00-.168.056l-.266.168c-.238.14-.42.182-.728.196-.686.028-1.288.084-2.814.084h-.672c-1.316 0-1.904-.056-2.646-.084-.406-.014-.546-.056-.798-.238l-.182-.126a.244.244 0 00-.168-.056c-.056 0-.112.042-.14.224-.028.154-.518 1.96-.658 2.464-.028.084.014.098.056.112l.252.07c.07.014.112 0 .14-.07.196-.448.616-1.428 1.246-1.624.546-.168 1.764-.168 2.212-.168h.35v3.598zm14.075 6.02c1.932 0 3.178-.84 4.032-1.974.728-.98 1.05-2.044 1.05-3.066 0-1.932-.896-3.304-1.918-4.186-1.106-.924-2.254-1.106-3.136-1.106-1.176 0-2.562.28-3.794 1.778-1.078 1.302-1.302 2.632-1.302 3.486 0 2.044 1.064 3.556 2.058 4.158 1.106.686 2.324.91 3.01.91zm.112-.532c-1.19 0-3.752-1.302-3.752-4.984 0-1.148.462-2.562 1.4-3.458 1.05-.994 2.002-.826 2.212-.826 1.554 0 3.738 1.806 3.738 4.872 0 1.246-.518 4.396-3.598 4.396zm10.336-5.39c0 2.492-.028 4.088-.056 4.354-.07.686-.224.854-.63.854h-.476c-.07 0-.084.042-.084.084v.364c0 .07.014.098.07.098.14 0 1.106-.042 1.4-.042.378 0 1.218.042 1.358.042.098 0 .112-.028.112-.112v-.308c0-.084-.014-.126-.112-.126h-.42c-.378 0-.462-.266-.518-.812-.028-.28-.14-2.562-.14-3.864v-3.108h.084c.084.112 2.66 3.346 2.814 3.486.084.084 1.106 1.372 2.086 2.59.868 1.092 1.694 2.128 1.708 2.156.042.056.168.224.336.224.056 0 .07-.14.07-.336v-5.236c0-.91 0-2.296.056-3.234.028-.532.168-.77.546-.77h.378c.056 0 .084-.042.084-.098v-.35c0-.056-.014-.098-.112-.098-.182 0-.518.042-1.358.042-.896 0-1.344-.042-1.54-.042-.056 0-.084.028-.084.084v.364c0 .07.028.098.084.098h.448c.392 0 .658.196.77.546.084.238.154 1.61.168 2.156.028.7.042 1.386.042 2.632v1.666h-.056c-.336-.448-2.702-3.346-2.856-3.542-.154-.196-2.87-3.724-2.94-3.808a.486.486 0 00-.406-.182c-.168 0-.462.028-.938.028-.476 0-.784-.014-.994-.028-.21 0-.322-.014-.392-.014s-.084.028-.084.084v.364c0 .042.014.098.084.098l.574.014c.504.014.924.476.924 1.302v2.38z" class="DOWNTON"/>
    <g class="HighclereCastle 1">
      <path fill="url(#paint2_linear_25_31)" d="M146.139.214l-.096 1.865-.456.028-.111-1.686-.206.014.012 4.383-2.635.489-.166-3.645-.185-.019-.069 1.544-.405-.015-.127-1.77h-.152l-.083 1.783-.4.013-.083-1.588-.207.013.055 8.885-1.725-.153-.207-2.431h-.262l-.124 2.5-2.319.498-.152-2.473h-.234l-.014 4.822-.456-.028.014 1.326-1.752.36.013 2.956-.538.014-.055-2.224h-.718l.014 1.81-.798.508.005-.46-.274-.01-.005.597-.224-.005v-.723h-.468v.83l-.498.01-.01-.547-.82-.01v.557l-1.688.01-.664.293v.85l-.536-.02-.059-4.513h-.215l-.107 1.573-1.171-.02-.078-1.739h-.283l-.108 1.768h-.927l-.068-1.582h-.195l-.125 4.553-2.32.136.08-3.84-3.02-.426-2.227.453-.059 3.823 2.091-.355 2.811.236-.012.141-2.792-.234-2.101.357-.016 1.08 2.153-.268 2.45.195-.011.141-2.436-.194-2.158.268-.064 4.073 2.132-.245 2.233.157-.011.14-2.219-.155-2.137.245-.065 4.214 2.355-.225 2.034.04-.003.141-2.026-.038-2.362.225-.071 4.52-.009.89 50.661-.006-.105-5.645-2.608.078-.719-.193h-6.974v-.142h6.993l.717.193 2.588-.078-.076-4.045-2.296-.183-.939.193-23.334-1.88.012-.14 23.314 1.878.939-.193 2.301.183-.076-4.053-2.167-.299-1.433.166-19.276-2.074.016-.14 19.258 2.071 1.437-.165 2.163.297-.097-5.139-2.234-.376-3.182.453-.01 3.43-.898-.117.039-.879-1.484-.02-.019.704-.586.04-.019-.548-1.191-.234-.019.664-.859-.04.039-4.044h-1.054l-.039.586-1.054-.351.019-1.661h-.78v1.7l-.639.278.02-13.753-.207-.014-.138 1.714-.4-.056-.111-1.81h-.22l-.083 1.838-.428.028-.097-1.7h-.207l-.165 3.841-2.305-.483-.083-4.435h-.221l-.083 1.74-.345-.041-.138-1.81-.193-.014zm1.183 6.978l.41.02.058 2.794-.468-.059V7.192zm-2.304.078V9.89l-.39.117V7.348l.39-.078zm3.854.226l.214.096.075.221.042 2.335-.718-.069.021-2.162.041-.235.118-.125.207-.061zm-5.328.096l.262.083.125.276v2.239l-.828.096.069-2.28.096-.276.276-.138zm6.315.186l.449.078v2.619l-.449-.04V7.779zm-7.397.06v2.461l-.508.078V7.915l.508-.078zm-.183 3.027l.017 5.42 1.065.166.136.72 1.211.124.177-.863.957.156.136.913 1.32.108.098-.903 1.066.156.059 1 .767-.052.01.14-.911.065-.06-1.03-.807-.118-.097.895-1.568-.128-.138-.923-.722-.118-.174.856-1.443-.149-.138-.725-.944-.146.002.493-.141.001-.02-6.057h.142zm5.121.997l.41.02-.02 2.852-.429-.078.039-2.794zm15.536.176l-.078 1.973-2.303.41-.156-1.973h-.293l-.009 3.07 3.184-.453 2.229.376-.056-2.993h-.214l-.098 1.876-1.601-.332-.312-1.954h-.293zm-14.085.03l.262.07.166.304.007 2.46-.752-.14-.021-2.327.11-.256.228-.11zm-31.344.214l-.009 2.003-1.665.298-.014-1.925-.264-.01-.046 2.936 2.22-.452 3.028.426.059-2.826-.322-.02-.069 1.983-2.498-.449-.078-1.964h-.342zm26.051.035l.29.042.193.304v2.293l-.842.083-.027-2.183.138-.359.248-.18zm6.34.112l.43.02v2.715l-.43-.078V12.43zm-12.502.88v2.793l-.575.088v-2.784l.575-.098zm2.665 0l.663.097v2.833l-.663-.098v-2.833zm9.97 2.988l.042 1.243-.345-.014v-1.202l.303-.027zm.676 0l.014 1.326-.359-.014-.027-1.285.372-.027zm1.381.248l.027 1.188-.235-.014-.027-1.16.235-.014zm9.931.007v2.247l-.566.02v-2.19l.566-.077zm-9.614.035h.207l.041 1.243h-.248v-1.243zm-35.953.041l.027 2.404-.276.041.014-2.362.235-.083zm47.812.04l.507.02v2.306l-.507-.058v-2.267zm-45.507.015l.483.028.027 2.225-.51-.042v-2.21zm35.913.162l.03 1.27-.283-.01.009-1.221.244-.04zm-.802.004l.276.014.014 1.16h-.29V16.85zm-15.175 1.018l3.445.412-.017.141-3.425-.41-3.074.507-.023-.14 3.094-.51zm-1.228 1.244v2.794l-.605.06v-2.717l.605-.137zm2.587.115l.539.152v2.431l-.539-.096v-2.487zm2.195.374l1.112.098v2.56l-1.112-.118V19.6zm2.596.234l.981.196v2.53l-.981-.264v-2.462zm2.594.248l.952.014v2.515l-.952-.042v-2.487zm-12.929.065l.273.117.127.264.059 2.15H134l-.029-2.072.088-.205.205-.195.244-.06zm-10.278.085l1.61.196-.017.141-1.591-.194-1.219.193-.022-.14 1.239-.197zm25.525.154l.952.083v2.307l-.952-.096v-2.294zm2.043.083l.911.07v2.348l-.911-.138v-2.28zm-19.723.235l.083 2.528-.842.014v-2.473l.759-.069zm21.752.069l.924.097v2.21h-.924v-2.307zm-22.911.028l.055 2.431h-.814v-2.404l.759-.027zm-1.311.055l.027 2.432-.8.027-.028-2.404.801-.055zm26.664.097l.884.027v2.39l-.884-.027v-2.39zm2.043.096l.911.042v2.39l-.911-.083V21.05zm-31.641.016h.8l.02 2.404-.8-.02-.02-2.384zm33.739.205l.869.028v2.349l-.869-.083V21.27zm-35.332.028h.179l.221.097.124.276-.014 1.782h-.758l.027-1.754.027-.18.194-.22zm-1.256.07l.138.262v1.823h-.621l.027-1.892.18-.18.276-.014zm40.559.03h.41l.058 2.403h-.488l.02-2.404zm-43.253.078h.722l.078 2.266-.78.04-.02-2.306zm-4.828.002l-.014 2.404-.276.055.041-2.376.249-.083zm2.374 0l.552.013.028 2.17h-.608l.028-2.183zm19.782 1.548l.008.142-3.084.176-.008-.142 3.084-.176zm-3.374.607l.004.14-1.601.04-.004-.142 1.601-.038zm-2.111.526l.009.143s-1.274.072-2.565.148c-.645.038-1.295.076-1.791.107l-.611.038-.182.012-.076.006-.02-.14.086-.007.184-.013.61-.037c.497-.03 1.147-.07 1.792-.107l2.564-.15zm7.647.027v2.708h-.607V24.2l.607-.014zm-3.797.142l.605.02v2.56h-.605v-2.58zm5.387.04l1.151.175v2.58l-1.151-.098v-2.658zm2.635.273l1.112.078v2.442l-1.112-.039v-2.481zm-22.095.008l3.299.018-.001.143-3.299-.02.001-.141zm24.564.076h1.173v2.625h-1.173v-2.625zm2.402.013l1.104.056v2.57h-1.104v-2.626zm-15.226.108l.225.078.127.264.019 2.169h-.829l-.04-2.15.137-.253.147-.098.214-.01zm-3.075.266h.759l.028 2.597-.829.014.042-2.611zm-.428.027l.027 2.57-.952.014.014-2.515.911-.069zm-2.195.11l.911.014.056 2.446-.967.028V25.25zm-1.319.095l.098 2.462-.898.02-.059-2.462.859-.02zm28.751 0l.878.078v2.345h-.878v-2.423zm2.166.06h.996v2.48h-.996v-2.48zm-33.269.048l.254.03.195.156.117.244.049 1.983h-.878l-.039-2.022.117-.284.185-.107zm35.417.01l.937.02v2.442h-.937v-2.462zm-36.997.117l.253.068.088.186.059 2.022-.654-.01-.01-2.002.107-.196.157-.068zm41.33 0l.078 2.286h-.488l-.039-2.267.449-.019zm-48.569.016v2.542l-.249.014.056-2.487.193-.069zm5.511.003l.078 2.365-.878.039.019-2.325.781-.079zm-3.192.01l.621.029.014 2.293-.649.014.014-2.335zm19.664 2.714l.003.142-3.026.058-.002-.142 3.025-.058zm.791.034l12.091.36-.004.142-12.091-.36.004-.142zm-5.476.357l.004.14-5.7.157-.003-.14 5.699-.157zm-10.85.312l3.222.039-.003.142-3.22-.04.001-.14zm23.281.84v2.846h-1.187V29.92l1.187-.056zm-2.709.052v2.813h-1.015v-2.794l1.015-.02zm7.484.058v2.708h-1.049v-2.68l1.049-.028zm-13.359.02v2.774h-.546v-2.735l.546-.04zm11.04.008v2.624h-.994V30.03l.994-.027zm5.454.011v4.084h-1.113v-4.025l1.113-.059zm-13.818.002l.635.014v2.653l-.635-.014v-2.653zm-8.833.056l.842.027v2.708h-.842v-2.735zm33.737.04l.058 2.56-.507-.02-.02-2.501.469-.039zm-8.803.02l.956.019v2.482h-.956v-2.501zm2.186 0h.859v2.54h-.859v-2.54zm3.084 0v2.383h-.898V30.19l.898-.058zm-32.715.009l.855.014v2.625l-.814-.014-.041-2.625zm1.297 0h.911v2.639h-.911v-2.64zm4.307.01l.273.108.166.244.01 2.237-.81-.01.019-2.257.147-.244.195-.078zm-7.807.04h.878l.058 2.735-.917-.02-.019-2.716zm-7.997.074h.511l.014 2.542-.58-.014.055-2.528zm6.679.003l.254.157.136.293v2.266h-.888l-.078-2.208.01-.127.107-.215.166-.156.293-.01zm-4.208.01h.731l.028 2.681-.745.014-.014-2.694zm2.36.104l.228.014.2.145.089.208.021 2.217h-.787l-.041-2.19.097-.255.193-.139zm-7.136.007l-.013 2.432h-.194l.028-2.418.179-.014z" class="path874"/>
    </g>
    <path stroke="url(#paint3_linear_25_31)" d="M3 35h238.5" class="BottomLine"/>
  </g>
  <defs>
    <linearGradient id="paint0_linear_25_31" x1="171.905" x2="249.394" y1="34.291" y2="34.179" class="paint0_linear_25_31" gradientUnits="userSpaceOnUse">
      <stop offset=".231" stop-color="#E3C575"/>
      <stop offset="1" stop-color="#9F8762"/>
    </linearGradient>
    <linearGradient id="paint1_linear_25_31" x1="108" x2=".001" y1="21.23" y2="20.991" class="paint1_linear_25_31" gradientUnits="userSpaceOnUse">
      <stop offset=".61" stop-color="#E3C575"/>
      <stop offset="1" stop-color="#9F8762"/>
    </linearGradient>
    <linearGradient id="paint2_linear_25_31" x1="165.875" x2="115.419" y1="34.894" y2="20.946" class="paint2_linear_25_31" gradientUnits="userSpaceOnUse">
      <stop stop-color="#9F8762"/>
      <stop offset=".175" stop-color="#E3C575"/>
      <stop offset=".396" stop-color="#F1DEAE"/>
      <stop offset=".658" stop-color="#E3C575"/>
      <stop offset="1" stop-color="#9F8762"/>
    </linearGradient>
    <linearGradient id="paint3_linear_25_31" x1="241.5" x2="7.718" y1="35.422" y2="2.21" class="paint3_linear_25_31" gradientUnits="userSpaceOnUse">
      <stop offset=".078" stop-color="#E3C575"/>
      <stop offset=".359" stop-color="#F1DEAE"/>
      <stop offset=".604" stop-color="#E3C575"/>
      <stop offset=".837" stop-color="#9F8762"/>
    </linearGradient>
  </defs>
</svg>
