<svg xmlns="http://www.w3.org/2000/svg" width="348" height="47" fill="none" viewBox="0 0 348 47">
  <path fill="url(#paint0_linear_60_156)" d="M8.152 21.424c0 4.992-.256 19.392-.448 20.736-.128 1.024-.832 1.536-2.048 1.536H1.368c-.32 0-.512.128-.512.384v1.664c0 .32.128.448.448.448.896 0 3.456-.192 9.024-.192 2.88 0 7.744.192 11.776.192 4.928 0 13.76 0 19.904-6.784 4.224-4.608 6.336-9.472 6.336-16.832 0-7.424-2.944-12.736-7.104-16.32-5.632-4.8-12.544-5.76-20.8-5.76-1.472 0-7.872.192-9.536.192-5.76 0-8.576-.192-9.408-.192-.256 0-.448.064-.448.32v1.728c0 .384.192.448.512.448h3.52c1.728 0 2.56.256 2.752 1.792.128 1.088.32 10.176.32 11.84v4.8zm5.888-3.136c0-1.024 0-9.408.064-12.096.064-1.408.32-2.432 1.216-3.008 1.088-.64 3.712-.64 5.12-.64 7.104 0 12.736 2.496 16.064 6.144 3.072 3.392 5.248 9.152 5.248 14.144 0 5.824-1.984 11.072-4.672 14.4-3.2 4.096-8.512 6.912-15.04 6.912-3.2 0-5.76-.704-6.784-2.048-.832-1.28-1.088-2.304-1.088-3.584-.064-3.968-.128-14.848-.128-15.68v-4.544zM83.542 46.72c6.624 0 10.897-2.88 13.825-6.768 2.495-3.36 3.6-7.008 3.6-10.512 0-6.624-3.073-11.328-6.576-14.352-3.793-3.168-7.729-3.792-10.753-3.792-4.032 0-8.784.96-13.008 6.096-3.695 4.464-4.463 9.024-4.463 11.952 0 7.008 3.647 12.192 7.055 14.256 3.793 2.352 7.969 3.12 10.32 3.12zm.385-1.824c-4.08 0-12.865-4.464-12.865-17.088 0-3.936 1.585-8.784 4.8-11.856 3.6-3.408 6.865-2.832 7.585-2.832 5.328 0 12.816 6.192 12.816 16.704 0 4.272-1.776 15.072-12.337 15.072zm36.139-29.424c-.288-1.056.144-1.728 1.392-1.728h.816c.336 0 .384-.144.384-.384v-1.2c0-.144-.048-.288-.384-.288-.48 0-2.448.144-5.904.144-3.264 0-4.752-.144-5.136-.144-.336 0-.384.096-.384.336v1.152c0 .192.048.384.288.384h1.632c.912 0 1.584.384 2.064 1.728l10.704 30.72c.192.576.48.768.864.768.432 0 .72-.432.96-.912.288-.528 9.024-25.2 9.456-26.496h.096l8.88 26.352c.24.672.48 1.056 1.056 1.056.528 0 .768-.72 1.008-1.248.96-2.304 10.992-30 11.376-30.672.432-.768 1.104-1.296 1.92-1.296h1.152c.336 0 .336-.144.336-.336v-1.2c0-.24-.048-.336-.336-.336-.384 0-1.776.144-4.464.144-2.976 0-4.656-.144-5.136-.144-.336 0-.384.144-.384.336v1.104c0 .288.048.432.336.432h1.296c1.296 0 1.68.72 1.68 1.488 0 2.736-6.96 22.992-7.488 24.528h-.096l-7.488-24.096c-.288-.864.144-1.92 1.344-1.92h1.92c.288 0 .336-.144.336-.336v-1.2c0-.192-.048-.336-.336-.336-.48 0-2.304.144-6.336.144-3.744 0-5.424-.144-5.856-.144-.288 0-.336.144-.336.336v1.152c0 .288.048.384.288.384h1.2c.864 0 1.488.336 1.92.912.432.576.768 1.392.72 1.776-.192 2.016-7.344 22.512-7.536 23.328h-.096l-7.728-24.288zm57.836 10.944c0 8.544-.096 14.016-.192 14.928-.24 2.352-.768 2.928-2.16 2.928h-1.632c-.24 0-.288.144-.288.288v1.248c0 .24.048.336.24.336.48 0 3.792-.144 4.8-.144 1.296 0 4.176.144 4.656.144.336 0 .384-.096.384-.384v-1.056c0-.288-.048-.432-.384-.432h-1.44c-1.296 0-1.584-.912-1.776-2.784-.096-.96-.48-8.784-.48-13.248V17.584h.288c.288.384 9.12 11.472 9.648 11.952.288.288 3.792 4.704 7.152 8.88 2.976 3.744 5.808 7.296 5.856 7.392.144.192.576.768 1.152.768.192 0 .24-.48.24-1.152V27.472c0-3.12 0-7.872.192-11.088.096-1.824.576-2.64 1.872-2.64h1.296c.192 0 .288-.144.288-.336v-1.2c0-.192-.048-.336-.384-.336-.624 0-1.776.144-4.656.144-3.072 0-4.608-.144-5.28-.144-.192 0-.288.096-.288.288v1.248c0 .24.096.336.288.336h1.536c1.344 0 2.256.672 2.64 1.872.288.816.528 5.52.576 7.392.096 2.4.144 4.752.144 9.024v5.712h-.192c-1.152-1.536-9.264-11.472-9.792-12.144-.528-.672-9.84-12.768-10.08-13.056-.384-.432-.768-.624-1.392-.624-.576 0-1.584.096-3.216.096-1.632 0-2.688-.048-3.408-.096-.72 0-1.104-.048-1.344-.048s-.288.096-.288.288v1.248c0 .144.048.336.288.336l1.968.048c1.728.048 3.168 1.632 3.168 4.464v8.16zm55.532-.336c0 .912 0 15.648-.144 17.04-.048.576-.624 1.152-1.584 1.152h-3.264c-.288 0-.336.144-.336.48v.912c0 .288.048.48.432.48.672 0 2.688-.144 7.296-.144 4.704 0 6.24.144 6.72.144.432 0 .48-.144.48-.384v-1.008c0-.336-.048-.48-.48-.48h-3.024c-1.152 0-1.536-.72-1.632-1.92-.048-.816-.048-14.256-.048-14.928v-13.68h1.344c2.352 0 6.864.096 8.304.816 1.584.768 3.024 4.464 3.408 5.376.144.336.192.384.384.336l.768-.192c.24-.048.336-.144.288-.384-.384-2.112-1.296-8.064-1.392-8.64-.096-.624-.192-.768-.432-.768-.192 0-.336.048-.576.192l-.912.576c-.816.48-1.44.624-2.496.672-2.352.096-4.416.288-9.648.288h-2.304c-4.512 0-6.528-.192-9.072-.288-1.392-.048-1.872-.192-2.736-.816l-.624-.432a.838.838 0 00-.576-.192c-.192 0-.384.144-.48.768-.096.528-1.776 6.72-2.256 8.448-.096.288.048.336.192.384l.864.24c.24.048.384 0 .48-.24.672-1.536 2.112-4.896 4.272-5.568 1.872-.576 6.048-.576 7.584-.576h1.2V26.08zm48.259 20.64c6.624 0 10.896-2.88 13.824-6.768 2.496-3.36 3.6-7.008 3.6-10.512 0-6.624-3.072-11.328-6.576-14.352-3.792-3.168-7.728-3.792-10.752-3.792-4.032 0-8.784.96-13.008 6.096-3.696 4.464-4.464 9.024-4.464 11.952 0 7.008 3.648 12.192 7.056 14.256 3.792 2.352 7.968 3.12 10.32 3.12zm.384-1.824c-4.08 0-12.864-4.464-12.864-17.088 0-3.936 1.584-8.784 4.8-11.856 3.6-3.408 6.864-2.832 7.584-2.832 5.328 0 12.816 6.192 12.816 16.704 0 4.272-1.776 15.072-12.336 15.072zm35.437-18.48c0 8.544-.096 14.016-.192 14.928-.24 2.352-.768 2.928-2.16 2.928h-1.632c-.24 0-.288.144-.288.288v1.248c0 .24.048.336.24.336.48 0 3.792-.144 4.8-.144 1.296 0 4.176.144 4.656.144.336 0 .384-.096.384-.384v-1.056c0-.288-.048-.432-.384-.432h-1.44c-1.296 0-1.584-.912-1.776-2.784-.096-.96-.48-8.784-.48-13.248V17.584h.288c.288.384 9.12 11.472 9.648 11.952.288.288 3.792 4.704 7.152 8.88 2.976 3.744 5.808 7.296 5.856 7.392.144.192.576.768 1.152.768.192 0 .24-.48.24-1.152V27.472c0-3.12 0-7.872.192-11.088.096-1.824.576-2.64 1.872-2.64h1.296c.192 0 .288-.144.288-.336v-1.2c0-.192-.048-.336-.384-.336-.624 0-1.776.144-4.656.144-3.072 0-4.608-.144-5.28-.144-.192 0-.288.096-.288.288v1.248c0 .24.096.336.288.336h1.536c1.344 0 2.256.672 2.64 1.872.288.816.528 5.52.576 7.392.096 2.4.144 4.752.144 9.024v5.712h-.192c-1.152-1.536-9.264-11.472-9.792-12.144-.528-.672-9.84-12.768-10.08-13.056-.384-.432-.768-.624-1.392-.624-.576 0-1.584.096-3.216.096-1.632 0-2.688-.048-3.408-.096-.72 0-1.104-.048-1.344-.048s-.288.096-.288.288v1.248c0 .144.048.336.288.336l1.968.048c1.728.048 3.168 1.632 3.168 4.464v8.16z" class="DOWNTON"/>
  <defs>
    <linearGradient id="paint0_linear_60_156" x1="350" x2="-.997" y1="24.474" y2="23.521" class="paint0_linear_60_156" gradientUnits="userSpaceOnUse">
      <stop offset=".078" stop-color="#E3C575"/>
      <stop offset=".359" stop-color="#F1DEAE"/>
      <stop offset=".604" stop-color="#E3C575"/>
      <stop offset=".837" stop-color="#9F8762"/>
    </linearGradient>
  </defs>
</svg>
