<svg xmlns="http://www.w3.org/2000/svg" width="131" height="89" fill="none" viewBox="0 0 131 89">
  <path fill="url(#paint0_linear_60_151)" d="M79.984.544l-.247 4.744-1.17.07-.284-4.287-.532.035.032 11.146-6.768 1.242-.426-9.267-.477-.049-.175 3.925-1.04-.037-.327-4.5h-.39l-.213 4.532-1.029.035-.212-4.04-.532.035.142 22.591-4.432-.387-.531-6.183H60.7l-.32 6.359-5.956 1.265-.39-6.289h-.602l-.036 12.261-1.17-.07.036 3.373-4.502.914.035 7.518-1.383.035-.142-5.657h-1.843l.035 4.603-2.05 1.292.013-1.168-.702-.025-.012 1.516-.577-.013v-1.838h-1.203v2.112l-1.279.024-.025-1.39-2.105-.025v1.415l-4.337.025-1.705.745v2.162l-1.378-.05-.15-11.477H28.4l-.276 4-3.008-.05-.201-4.422h-.727l-.276 4.496h-2.381l-.175-4.024h-.501l-.322 11.578-5.958.346.205-9.764-7.758-1.084-5.72 1.153-.152 9.721 5.373-.905 7.22.602-.033.358-7.17-.595-5.396.907-.043 2.747 5.532-.68 6.292.494-.027.36-6.257-.493-5.545.681L.933 63.55l5.477-.624 5.734.4-.027.358-5.7-.396-5.49.623L.76 74.626l6.05-.572 5.224.1-.008.36-5.203-.098-6.069.574-.18 11.49-.025 2.263 130.131-.013-.272-14.354-6.697.199-1.848-.492h-17.912v-.361h17.96l1.842.491 6.648-.198-.195-10.285-5.897-.467-2.411.492-59.937-4.78.03-.358 59.886 4.776 2.411-.492 5.911.467-.195-10.306-5.566-.76-3.683.422-49.511-5.273.04-.36 49.469 5.269 3.69-.42 5.554.756-.247-13.068-5.738-.957-8.175 1.154-.026 8.723-2.306-.299.1-2.235-3.81-.05-.051 1.788-1.503.1-.051-1.392-3.058-.595-.05 1.689-2.206-.1.1-10.285h-2.707l-.1 1.491-2.708-.894.05-4.223h-2.005v4.322l-1.642.708.053-34.972-.532-.035-.355 4.357-1.027-.14-.284-4.604h-.567l-.213 4.673-1.099.07-.248-4.32h-.532l-.425 9.766-5.92-1.23L82.501.862h-.568l-.212 4.427-.887-.106L80.481.58l-.497-.035zm3.038 17.744l1.053.05.15 7.105-1.203-.149v-7.006zm-5.916.2v6.657l-1.002.298v-6.757l1.002-.198zm9.898.572l.55.245.194.563.107 5.938-1.843-.176.052-5.499.107-.597.301-.316.532-.158zm-13.684.245l.673.211.32.703v5.692l-2.128.245.178-5.796.248-.703.709-.352zm16.22.474l1.153.199v6.658l-1.153-.1V19.78zm-19.001.15v6.26l-1.304.199v-6.261l1.304-.198zm-.47 7.7l.043 13.78 2.738.423.35 1.83 3.11.317.453-2.195 2.46.396.348 2.323 3.39.274.253-2.296 2.737.396.15 2.545 1.972-.135.027.36-2.341.162-.153-2.619-2.074-.3-.249 2.275-4.028-.324-.354-2.348-1.854-.3-.447 2.177-3.707-.377-.354-1.845-2.426-.373.004 1.256-.362.003-.05-15.404.364-.002zm13.154 2.534l1.053.05-.05 7.254-1.103-.198.1-7.105zm39.908.448l-.201 5.018-5.916 1.044-.401-5.019h-.752l-.023 7.806 8.179-1.152 5.725.955-.144-7.609h-.551l-.251 4.77-4.111-.845-.802-4.968h-.752zm-36.18.078l.674.176.425.773.017 6.253-1.932-.351-.053-5.92.284-.65.585-.281zm-80.51.543l-.025 5.093-4.275.758-.038-4.895-.678-.024-.117 7.464 5.703-1.15 7.776 1.084.152-7.188-.828-.049-.176 5.043-6.417-1.143-.2-4.993H6.44zm66.914.089l.745.105.496.773v5.833l-2.163.21-.07-5.55.354-.914.638-.457zm16.285.283l1.103.05v6.907l-1.103-.2v-6.757zm-32.112 2.237v7.105l-1.478.223v-7.08l1.478-.248zm6.844 0l1.704.248v7.205l-1.704-.25v-7.203zm25.61 7.599l.106 3.162-.886-.035V41.51l.78-.07zm1.737 0l.036 3.373-.922-.035-.071-3.268.957-.07zm3.545.632l.071 3.021-.603-.035-.07-2.95.602-.036zm25.511.016v5.714l-1.454.05v-5.565l1.454-.199zm-24.695.09h.531l.107 3.161h-.638v-3.161zm-92.35.105l.07 6.113-.709.105.036-6.008.602-.21zm122.81.103l1.304.05V48.3l-1.304-.149v-5.764zm-116.89.037l1.24.07.071 5.657-1.312-.105v-5.622zm92.248.41l.076 3.23-.727-.025.025-3.105.626-.1zm-2.06.012l.709.035.035 2.952h-.744v-2.987zm-38.979 2.589l8.848 1.047-.043.358-8.797-1.042-7.896 1.29-.059-.357 7.947-1.296zm-3.155 3.164v7.104l-1.554.15v-6.907l1.554-.347zm6.646.29l1.384.387v6.183l-1.384-.246v-6.324zm5.637.952l2.858.248v6.509l-2.858-.298v-6.46zm6.668.596l2.52.496v6.434l-2.52-.67v-6.26zm6.662.63l2.446.035v6.395l-2.446-.106v-6.324zm-33.208.164l.701.299.326.67.15 5.466h-2.48l-.076-5.267.226-.521.525-.497.628-.15zm-26.4.216l4.135.499-.042.36-4.088-.495-3.133.492-.056-.354 3.184-.502zm65.564.394l2.446.21v5.867l-2.446-.245V51.84zm5.247.21l2.34.176v5.972l-2.34-.35V52.05zm-50.66.598l.213 6.429-2.163.035v-6.29l1.95-.174zm55.871.175l2.375.246v5.621h-2.375v-5.867zm-58.849.07l.142 6.184h-2.092v-6.114l1.95-.07zm-3.368.14l.07 6.184-2.055.07-.07-6.113 2.055-.14zm68.492.247l2.269.07v6.078l-2.269-.07V53.28zm5.246.246l2.341.105v6.078l-2.341-.21v-5.973zm-81.273.04h2.055l.05 6.111-2.055-.05-.05-6.061zm86.662.522l2.234.07v5.973l-2.234-.211v-5.832zm-90.755.07h.46l.569.246.318.703-.035 4.532h-1.95l.07-4.462.072-.457.496-.562zm-3.225.176l.354.667v4.638h-1.596l.071-4.814.461-.456.71-.035zm104.18.077h1.053l.15 6.11h-1.253l.05-6.11zm-111.1.199h1.854l.201 5.763-2.005.1-.05-5.863zm-12.402.005l-.035 6.113-.709.14.106-6.043.638-.21zm6.098 0l1.418.035.07 5.516H9.367l.071-5.551zm50.813 3.938l.022.359-7.922.449-.022-.362 7.922-.446zm-8.667 1.541l.01.36-4.111.098-.01-.36 4.11-.098zm-5.421 1.34l.022.361s-3.272.185-6.587.378c-1.658.096-3.327.194-4.603.27-.638.04-1.178.074-1.569.1-.195.012-.352.02-.466.029-.114.008-.197.016-.196.016l-.05-.357c.044-.006.103-.01.22-.018.115-.008.275-.02.47-.032a2404.33 2404.33 0 016.172-.366c3.316-.193 6.587-.381 6.587-.381zm19.642.067v6.886h-1.56v-6.851l1.56-.035zm-9.755.363l1.554.05v6.508H56.05v-6.558zm13.838.099l2.958.447v6.558l-2.958-.248v-6.757zm6.768.695l2.858.2v6.21l-2.858-.1v-6.31zm-56.752.02l8.472.048-.002.361-8.473-.05.003-.36zm63.095.193h3.014v6.675h-3.014v-6.675zm6.169.035l2.836.141v6.535h-2.836v-6.676zm-39.109.274l.577.199.326.67.05 5.516h-2.13l-.101-5.466.35-.645.377-.249.551-.025zm-7.9.675h1.95l.071 6.605-2.127.035.106-6.64zm-1.099.07l.071 6.535-2.446.035.036-6.395 2.34-.175zm-5.636.281l2.34.035.141 6.219-2.481.07v-6.324zm-3.389.241l.25 6.26-2.305.05-.15-6.26 2.205-.05zm73.85 0l2.256.199v5.962h-2.256v-6.16zm5.565.15h2.557v6.31h-2.557v-6.31zm-85.456.123l.652.075.502.398.3.62.125 5.044h-2.255l-.101-5.143.3-.72.477-.274zm90.971.025l2.407.05v6.21h-2.407v-6.26zm-95.031.299l.65.173.227.472.15 5.143-1.68-.025-.024-5.093.275-.497.402-.173zm106.161 0l.201 5.813h-1.254l-.1-5.764 1.153-.05zm-124.755.04v6.465l-.638.035.142-6.324.496-.176zm14.156.009l.2 6.012-2.255.1.05-5.913 2.005-.2zm-8.2.026l1.595.07.036 5.833-1.666.035.035-5.938zm50.51 6.899l.008.361-7.772.15-.006-.362 7.77-.15zm2.033.088l31.058.914-.012.361-31.057-.914.011-.361zm-14.067.906l.01.359-14.64.398-.008-.358 14.638-.399zm-27.868.795l8.274.098-.006.362-8.27-.102.002-.358zm59.798 2.133v7.238h-3.049v-7.097l3.05-.14zm-6.957.134v7.155h-2.607v-7.106l2.607-.05zm19.224.148v6.886h-2.695v-6.816l2.695-.07zm-34.314.05v7.056H56.25v-6.956l1.404-.1zm28.358.02v6.675h-2.553v-6.605l2.553-.07zm14.007.03v10.384H97.16V76.471l2.859-.149zm-35.491.005l1.63.035v6.746l-1.63-.035v-6.746zm-22.689.14l2.163.071v6.886h-2.163v-6.956zm86.656.103l.15 6.51-1.303-.05-.05-6.36 1.203-.1zm-22.611.05l2.457.05v6.31h-2.457v-6.36zm5.615 0h2.206v6.46h-2.206v-6.46zm7.922 0v6.062h-2.307v-5.913l2.307-.149zm-84.034.023l2.198.036v6.675l-2.091-.035-.107-6.675zm3.333 0h2.34v6.71h-2.34v-6.71zm11.062.027l.702.273.427.621.024 5.69-2.08-.025.05-5.74.376-.62.501-.199zm-20.054.1h2.257l.15 6.955-2.356-.05-.05-6.906zm-20.54.19h1.313l.035 6.464-1.49-.035.143-6.43zm17.156.008l.652.398.35.745v5.763h-2.28l-.2-5.614.024-.323.276-.547.426-.397.752-.025zm-10.81.026h1.88l.07 6.816-1.914.035-.035-6.85zm6.063.264l.585.035.513.37.23.526.054 5.639h-2.02l-.107-5.568.248-.65.497-.352zm-18.328.018l-.036 6.183h-.497l.071-6.148.462-.035z" class="path874"/>
  <defs>
    <linearGradient id="paint0_linear_60_151" x1="130.68" x2="1.263" y1="88.73" y2="52.593" class="paint0_linear_60_151" gradientUnits="userSpaceOnUse">
      <stop stop-color="#9F8762"/>
      <stop offset=".175" stop-color="#E3C575"/>
      <stop offset=".396" stop-color="#F1DEAE"/>
      <stop offset=".658" stop-color="#E3C575"/>
      <stop offset="1" stop-color="#9F8762"/>
    </linearGradient>
  </defs>
</svg>
