<svg xmlns="http://www.w3.org/2000/svg" width="475" height="29" fill="none" viewBox="0 0 475 29">
  <g class="HorizontalDivider2">
    <path fill="#FAE19F" d="M221 11.5l.354-.354-.147-.146H221v.5zM237.5 28l-.354.354.354.353.354-.353L237.5 28zM254 11.5V11h-.207l-.147.146.354.354zm105.887 0L357 8.613l-2.887 2.887L357 14.387l2.887-2.887zm-244.774 0L118 14.387l2.887-2.887L118 8.613l-2.887 2.887zm105.533.354l16.5 16.5.708-.708-16.5-16.5-.708.708zm17.208 16.5l16.5-16.5-.708-.708-16.5 16.5.708.708zM254 12h103v-1H254v1zm-33-1H118v1h103v-1z" class="down"/>
    <path stroke="#FAE19F" stroke-dasharray="3 3" d="M475 .5H250.5l-13 13-13-13H0" class="up"/>
    <path fill="#FAE19F" d="M237.5 4l-3.897-4h7.794L237.5 4z" class="tri"/>
  </g>
</svg>
