<svg xmlns="http://www.w3.org/2000/svg" width="40" height="75" fill="none" viewBox="0 0 40 75">
  <g class="ScrollArrow">
    <path fill="#FAE19F" d="M3.504 71.18c1.584 0 2.448-1.212 2.448-2.628 0-.792-.216-1.26-.528-1.632-.432-.528-1.104-.732-1.932-.996-.348-.108-1.02-.372-1.368-.72-.3-.312-.372-.708-.372-1.044 0-.612.384-1.404 1.452-1.404.564 0 .984.168 1.308.516.492.516.648.984.744 1.332.012.036.036.048.072.036l.144-.036c.048-.012.06-.036.06-.096-.012-.264-.168-1.488-.168-1.908 0-.108-.036-.204-.096-.204-.06 0-.096.024-.156.072l-.156.144c-.06.06-.12.072-.228.012a3.455 3.455 0 00-1.416-.3c-.648 0-1.248.168-1.68.576-.372.348-.744.936-.744 1.536 0 .792.204 1.356.6 1.752.516.54 1.38.84 1.752.972.96.336 1.848.792 1.848 2.028 0 1.08-.912 1.524-1.632 1.524-.66 0-1.32-.324-1.68-.888-.396-.612-.42-1.008-.432-1.392 0-.072-.024-.096-.072-.096l-.18-.012c-.048 0-.072 0-.084.072-.036.348-.156 1.872-.204 2.172-.024.132.036.192.108.192.084 0 .144-.012.216-.144.072-.12.12-.204.192-.204.06 0 .132.036.276.144.48.372 1.068.624 1.908.624zm8.382-4.944c.288 0 .54.036.804.528.18.324.384.48.66.48.252 0 .432-.144.444-.42 0-.252-.384-.972-1.632-.972-1.584 0-2.568 1.416-2.568 2.82 0 .54.096 1.044.54 1.632.552.696 1.224.84 1.86.84.816 0 1.584-.456 1.932-.852.06-.072.048-.108 0-.156l-.12-.12c-.036-.036-.072-.024-.096 0-.408.384-.72.516-1.32.516-.408 0-.912-.096-1.308-.612-.324-.444-.612-1.176-.612-1.824 0-1.236.732-1.86 1.416-1.86zm5.762 2.7c0 .624 0 1.044-.012 1.44 0 .156-.084.228-.264.228h-.468c-.108 0-.132.024-.132.108v.204c0 .096.024.12.072.12.072 0 .576-.036 1.32-.036.648 0 1.2.036 1.272.036.048 0 .06-.036.06-.108v-.216c0-.072-.012-.108-.084-.108h-.564c-.252 0-.336-.12-.336-.492v-2.52c0-.036.048-.252.12-.384.204-.384.516-.504.708-.504.156 0 .3.036.396.096a.787.787 0 00.348.096c.216 0 .504-.24.504-.588 0-.276-.204-.528-.612-.528-.516 0-1.08.492-1.44 1.044h-.048l-.06-.828c0-.072-.012-.144-.084-.144a.361.361 0 00-.168.048l-1.188.612c-.072.036-.096.06-.096.108v.072c0 .048.024.06.096.084l.228.12c.336.18.432.3.432.912v1.128zm8.112 2.208c1.476 0 2.652-1.332 2.652-2.64 0-.78-.276-1.404-.816-1.956-.36-.36-1.02-.696-1.68-.696-.396 0-.984.096-1.608.576-.708.552-1.032 1.32-1.032 1.932 0 .852.108 1.296.66 1.956.504.6 1.248.828 1.824.828zm.144-.36c-.564 0-.912-.228-1.188-.624-.384-.552-.456-1.008-.456-1.68 0-.912.168-1.404.636-1.884.288-.312.6-.384.924-.384.612 0 1.584.84 1.584 2.172 0 1.284-.588 2.4-1.5 2.4zm7.345-4.428c0-.66.036-3.156.048-3.816.012-.156-.012-.216-.096-.216-.072 0-.144.024-.252.096-.444.288-.984.504-1.404.696-.072.024-.108.048-.108.084v.096c0 .024.012.036.072.06l.24.084c.384.12.576.312.6.72.024.312.036 1.404.036 2.256v.756c0 .696 0 2.76-.012 3.132-.012.216-.132.3-.264.3h-.576c-.132 0-.156.024-.156.108v.204c0 .072.024.12.084.12.108 0 .588-.036 1.356-.036.744 0 1.272.036 1.356.036.048 0 .072-.048.072-.12v-.204c0-.072-.024-.108-.132-.108h-.54c-.252 0-.3-.168-.312-.372-.012-.372-.012-2.184-.012-2.808v-1.068zm5.529 0c0-.66.036-3.156.048-3.816.012-.156-.012-.216-.096-.216-.072 0-.144.024-.252.096-.444.288-.984.504-1.404.696-.072.024-.108.048-.108.084v.096c0 .024.012.036.072.06l.24.084c.384.12.576.312.6.72.024.312.036 1.404.036 2.256v.756c0 .696 0 2.76-.012 3.132-.012.216-.132.3-.264.3h-.576c-.132 0-.156.024-.156.108v.204c0 .072.024.12.084.12.108 0 .588-.036 1.356-.036.744 0 1.272.036 1.356.036.048 0 .072-.048.072-.12v-.204c0-.072-.024-.108-.132-.108h-.54c-.252 0-.3-.168-.312-.372-.012-.372-.012-2.184-.012-2.808v-1.068z" class="Scroll"/>
    <path fill="#E3C575" d="M20 0l3.536 3.536L20 7.07l-3.536-3.535z" class="Tail"/>
    <path stroke="url(#paint0_linear_87_219)" d="M20 5.536v45" class="Body"/>
    <path fill="#9F8762" fill-rule="evenodd" d="M15.646.707L16.353 0 20 3.646 23.646 0l.707.707L20 5.061 15.646.707z" class="Head (Stroke)" clip-rule="evenodd"/>
  </g>
  <defs>
    <linearGradient id="paint0_linear_87_219" x1="20" x2="-2.195" y1="6.035" y2="29.854" class="paint0_linear_87_219" gradientUnits="userSpaceOnUse">
      <stop offset=".231" stop-color="#E3C575"/>
      <stop offset="1" stop-color="#9F8762"/>
    </linearGradient>
  </defs>
</svg>
